inDegrees=no
num_controls=7
num_derivatives=13
num_iterations=129
num_multipliers=7
num_parameters=0
num_slacks=7
num_states=26
objective=5.603065
objective_accelerations=0.741349
objective_balance=0.025570
objective_effort=0.709790
objective_height=4.054048
objective_ligament=0.072309
solver_duration=1357.628423
status=Solve_Succeeded
success=true
DataType=double
version=3
OpenSimVersion=4.4-2022-07-23-0e9fedc
endheader
time	/jointset/ground_pelvis/pelvis_tilt/value	/jointset/ground_pelvis/pelvis_tx/value	/jointset/ground_pelvis/pelvis_ty/value	/jointset/hip_l/hip_flexion_l/value	/jointset/hip_l/hip_adduction_l/value	/jointset/hip_l/hip_rotation_l/value	/jointset/back/lumbar_extension/value	/jointset/patellofemoral_l/patellar_flexion_l/value	/jointset/knee_l/knee_flexion_l/value	/jointset/knee_l/knee_adduction_l/value	/jointset/knee_l/knee_rotation_l/value	/jointset/ankle_l/ankle_angle_l/value	/jointset/subtalar_l/subtalar_angle_l/value	/jointset/ground_pelvis/pelvis_tilt/speed	/jointset/ground_pelvis/pelvis_tx/speed	/jointset/ground_pelvis/pelvis_ty/speed	/jointset/hip_l/hip_flexion_l/speed	/jointset/hip_l/hip_adduction_l/speed	/jointset/hip_l/hip_rotation_l/speed	/jointset/back/lumbar_extension/speed	/jointset/patellofemoral_l/patellar_flexion_l/speed	/jointset/knee_l/knee_flexion_l/speed	/jointset/knee_l/knee_adduction_l/speed	/jointset/knee_l/knee_rotation_l/speed	/jointset/ankle_l/ankle_angle_l/speed	/jointset/subtalar_l/subtalar_angle_l/speed	/forceset/tau_hip_flexion_l	/forceset/tau_hip_adduction_l	/forceset/tau_hip_rotation_l	/forceset/tau_knee_flexion_l	/forceset/tau_ankle_angle_l	/forceset/tau_subtalar_angle_l	/forceset/tau_lumbar_extension	lambda_cid13_p0	lambda_cid13_p1	lambda_cid13_p2	lambda_cid13_p3	lambda_cid13_p4	lambda_cid13_p5	lambda_cid14_p0	/jointset/ground_pelvis/pelvis_tilt/accel	/jointset/ground_pelvis/pelvis_tx/accel	/jointset/ground_pelvis/pelvis_ty/accel	/jointset/hip_l/hip_flexion_l/accel	/jointset/hip_l/hip_adduction_l/accel	/jointset/hip_l/hip_rotation_l/accel	/jointset/back/lumbar_extension/accel	/jointset/patellofemoral_l/patellar_flexion_l/accel	/jointset/knee_l/knee_flexion_l/accel	/jointset/knee_l/knee_adduction_l/accel	/jointset/knee_l/knee_rotation_l/accel	/jointset/ankle_l/ankle_angle_l/accel	/jointset/subtalar_l/subtalar_angle_l/accel	gamma_cid13_p0	gamma_cid13_p1	gamma_cid13_p2	gamma_cid13_p3	gamma_cid13_p4	gamma_cid13_p5	gamma_cid14_p0
1.5	-0.06151222995084855	-0.07463962014562164	0.726340009175429	1.174565281450025	-0.321819794469167	-0.007430685957026883	-0.8800153189298819	1.239040343742746	1.23904034374251	-0.03870043562609327	-0.1745322115322381	0.214767103010705	0.04699444330567463	0.3652600757618699	0.2134223660620601	0.9292120417623787	-3.117635611285285	-0.01873502735492869	-0.8847877042741945	0.6907332655417996	-3.029442924749266	-3.029442924749645	-0.2882873408938637	0.0002631197014492533	-0.4721497279383707	-0.2013690086531258	-0.2969872802900901	-0.01067209303959874	-0.005463729134272656	-0.3279386991238511	0.1362804164267577	0.0419810912173035	0.3695110512386841	0.7444335154108781	-17.9226886435746	1.900423108872174	-26.54095458641185	-693.732877963424	-77.59302529121278	-0.4620635835388017	1.380075995877679	1.515134032276896	-0.6446685932450625	-2.4499644981911	0.9143554352299638	-0.5410773233364506	3.511140792788602	-2.820263297381507	-2.82026329738156	-0.2371159720000457	0.0932609425072474	-1.867365953881026	0.5282741611555873	7.139356255892774e-07	1.366938587236493e-06	-3.976586338117657e-06	-1.102523621420583e-07	7.248805194576279e-07	-2.127018056678003e-06	8.554858680353207e-07
1.51	-0.05779143440678132	-0.07242948618985444	0.7355975349328638	1.143269557011138	-0.3219631823191844	-0.01630366143483183	-0.8729327962480202	1.208608454001448	1.208608454001257	-0.04159943633626284	-0.1745271873422055	0.2099531144284974	0.04500524800350653	0.378782517785533	0.2286168936668553	0.9220541372707568	-3.141133440069544	-0.009932442420556731	-0.8897437183312749	0.7257725304733501	-3.056543631909684	-3.056543631909424	-0.2915300929786553	0.0007730649280020235	-0.4904879218632416	-0.1964010705916988	-0.287329898343909	-0.009508358641604603	-0.005881608023122395	-0.3189315758275005	0.1350875419874647	0.04270181026801712	0.3596536735937828	1.041067383706674	-18.44033495229057	2.157367712443683	-26.7652325294424	-683.3485730914479	-77.2198068681726	-0.860205270914275	1.320938115913663	1.523469894484014	-0.7870387160924702	-2.243214588094336	0.8650472679250116	-0.4625404743049	3.50050828963752	-2.596435294777377	-2.596435294681485	-0.3699898588484499	0.03380097441095706	-1.792950592474194	0.4915347445032567	7.409959294782727e-07	1.678495248982976e-06	-3.762453469436633e-06	-7.879144636666829e-08	7.696054896760608e-07	-1.734029527670605e-06	8.505778301734194e-07
1.52	-0.05393889248041945	-0.07006703540405854	0.7447763441775881	1.111750149780496	-0.3220181768707813	-0.02522413245867967	-0.865499843127584	1.177917265014663	1.177917265014528	-0.04453129157369066	-0.1745162757668592	0.2049605630109051	0.04306782830512605	0.3916093522213206	0.2438857320678034	0.9134687392202744	-3.162372169635842	-0.001056367670832305	-0.8942868134848068	0.7608193532568717	-3.081302773846321	-3.081302773845422	-0.2948582463486398	0.00144059662180872	-0.5078622950154751	-0.1910138878955986	-0.2776725163977236	-0.008344624243578633	-0.006299486911805411	-0.3099244525311433	0.1338946675481792	0.04342252931877019	0.3497962959488797	1.336187881969007	-18.9699917307254	2.430252686733775	-27.0729378996803	-673.0045006775287	-76.97167502776121	-1.381538779673649	1.240954478302464	1.529996191507631	-0.9301673050172229	-1.998144654598849	0.9290533982999526	-0.4584935426273292	3.512652363182748	-2.351950252625104	-2.351950252625134	-0.254196229038782	0.1247782359569391	-1.67460179935335	0.6121230880896713	7.640329842021136e-07	1.992314090370355e-06	-3.539715802074737e-06	-5.03679037207641e-08	8.173966819753245e-07	-1.362193948640834e-06	8.443221934085898e-07
1.53	-0.04996152262654516	-0.06755159176219529	0.7538622602934876	1.080029460604158	-0.3219839683309452	-0.03418831023411042	-0.8577167607720909	1.146990374128664	1.146990374128563	-0.0474964511531588	-0.1744977055234619	0.1997994506742899	0.04118658346710351	0.4037388992163115	0.2592075887355603	0.9034815117034104	-3.181374233026292	0.007921945845969404	-0.8984419765512019	0.7957757409878008	-3.103647418024635	-3.103647418024311	-0.2981912496889397	0.002352766979906082	-0.5241609866395949	-0.185141072740279	-0.2676734090468406	-0.007511634447510442	-0.006676735910957621	-0.3011567058618269	0.1328108866923067	0.04394787954336802	0.3395540418085965	1.655538499310355	-19.41363377131997	2.683243002754828	-27.28959180335956	-662.5952990544733	-76.63388339346619	-2.021113268801245	1.180177354827333	1.533966932776353	-1.06776715840699	-1.792426298199861	0.8859943989786495	-0.3772227076288708	3.483925449820668	-2.111690204837787	-2.111690204924038	-0.3749717064859077	0.08567951343058715	-1.577506665478108	0.5889375630334295	7.827953366879781e-07	2.308536497626188e-06	-3.307835536114416e-06	-2.517157002493859e-08	8.684457352354708e-07	-1.012833378962292e-06	8.36634732809399e-07
